<?xml version="1.0" encoding="utf-8"?>
<!-- Generator: Adobe Illustrator 17.0.0, SVG Export Plug-In . SVG Version: 6.00 Build 0)  -->
<!DOCTYPE svg PUBLIC "-//W3C//DTD SVG 1.1 Tiny//EN" "http://www.w3.org/Graphics/SVG/1.1/DTD/svg11-tiny.dtd">
<svg version="1.1" baseProfile="tiny" id="Layer_1" xmlns="http://www.w3.org/2000/svg" xmlns:xlink="http://www.w3.org/1999/xlink"
	 x="0px" y="0px" width="18px" height="29px" viewBox="0 0 18 29" overflow="scroll" xml:space="preserve">
<g>
	<path fill-rule="evenodd" d="M15,0H3C1.343,0,0,1.343,0,3v22.917C0,27.574,1.343,29,3,29h12c1.657,0,3-1.343,3-3V3
		C18,1.343,16.657,0,15,0z M7,1h4v1H7V1z M9,27c-0.552,0-1-0.448-1-1c0-0.552,0.448-1,1-1s1,0.448,1,1C10,26.552,9.552,27,9,27z
		 M16,23H2V3h14V23z"/>
</g>
</svg>
