<?xml version="1.0" encoding="utf-8"?>
<!-- Generator: Adobe Illustrator 17.0.0, SVG Export Plug-In . SVG Version: 6.00 Build 0)  -->
<!DOCTYPE svg PUBLIC "-//W3C//DTD SVG 1.1 Tiny//EN" "http://www.w3.org/Graphics/SVG/1.1/DTD/svg11-tiny.dtd">
<svg version="1.1" baseProfile="tiny" id="Layer_1" xmlns="http://www.w3.org/2000/svg" xmlns:xlink="http://www.w3.org/1999/xlink"
	 x="0px" y="0px" width="24px" height="24px" viewBox="0 0 24 24" xml:space="preserve">
<path fill-rule="evenodd" d="M21.818,24h-4.923v-9.45h3.21l0.481-3.683h-3.691V8.517c0-1.066,0.299-1.793,1.847-1.793l1.974-0.001
	V3.429c-0.342-0.045-1.513-0.145-2.877-0.145c-2.845,0-4.793,1.716-4.793,4.868v2.716H9.828v3.683h3.218V24H2.182
	C0.977,24,0,23.023,0,21.818V2.182C0,0.977,0.977,0,2.182,0h19.636C23.023,0,24,0.977,24,2.182v19.636
	C24,23.023,23.023,24,21.818,24z"/>
</svg>
