<?xml version="1.0" encoding="utf-8"?>
<!-- Generator: Adobe Illustrator 17.0.0, SVG Export Plug-In . SVG Version: 6.00 Build 0)  -->
<!DOCTYPE svg PUBLIC "-//W3C//DTD SVG 1.1 Tiny//EN" "http://www.w3.org/Graphics/SVG/1.1/DTD/svg11-tiny.dtd">
<svg version="1.1" baseProfile="tiny" id="Layer_1" xmlns="http://www.w3.org/2000/svg" xmlns:xlink="http://www.w3.org/1999/xlink"
	 x="0px" y="0px" width="28px" height="18px" viewBox="0 0 28 18" xml:space="preserve">
<g>
	<path fill-rule="evenodd" d="M16.03,11.965l11.937-9.952c0-2-1.875-2.02-1.875-2.02H1.845c-1.881,0-1.802,1.988-1.802,1.988
		l12.052,9.984C14.345,14.215,16.03,11.965,16.03,11.965z M22.24,7.952l3.802,7.993l-5.061-6.91l-3.959,3.403
		c-1.563,1.875-3.083,1.625-3.083,1.625c-1.812,0-3-1.688-3-1.688L7.031,9.027l-5.013,6.891l3.938-7.812L0,3.001v13
		c0,2,1.875,2,1.875,2H26c1.812,0,2-1.937,2-1.937V3.001L22.24,7.952z"/>
</g>
</svg>
